<svg width="105" height="36" viewBox="0 0 105 36" fill="none" xmlns="http://www.w3.org/2000/svg">
<rect width="105" height="36" rx="4" fill="#DA2535"/>
<path d="M17.0043 13.3182H19.2614L22.2841 20.696H22.4034L25.4261 13.3182H27.6832V23.5H25.9134V16.505H25.8189L23.005 23.4702H21.6825L18.8686 16.4901H18.7741V23.5H17.0043V13.3182ZM32.9929 23.6491C32.2273 23.6491 31.5661 23.4901 31.0092 23.1719C30.4557 22.8504 30.0298 22.3963 29.7315 21.8097C29.4332 21.2197 29.2841 20.5253 29.2841 19.7266C29.2841 18.9411 29.4332 18.2517 29.7315 17.6584C30.0331 17.0618 30.4541 16.5978 30.9943 16.2663C31.5346 15.9316 32.1693 15.7642 32.8984 15.7642C33.3691 15.7642 33.8132 15.8404 34.2308 15.9929C34.6518 16.142 35.023 16.3741 35.3445 16.6889C35.6693 17.0038 35.9245 17.4048 36.1101 17.892C36.2957 18.3759 36.3885 18.9527 36.3885 19.6222V20.174H30.1293V18.9609H34.6634C34.66 18.6162 34.5855 18.3097 34.4396 18.0412C34.2938 17.7694 34.09 17.5556 33.8281 17.3999C33.5696 17.2441 33.268 17.1662 32.9233 17.1662C32.5554 17.1662 32.2322 17.2557 31.9538 17.4347C31.6754 17.6103 31.4583 17.8423 31.3026 18.1307C31.1501 18.4157 31.0722 18.7289 31.0689 19.0703V20.1293C31.0689 20.5734 31.1501 20.9545 31.3125 21.2727C31.4749 21.5876 31.7019 21.8295 31.9936 21.9986C32.2853 22.1643 32.6267 22.2472 33.0178 22.2472C33.2796 22.2472 33.5166 22.2107 33.7287 22.1378C33.9408 22.0616 34.1248 21.9505 34.2805 21.8047C34.4363 21.6589 34.554 21.4782 34.6335 21.2628L36.3139 21.4517C36.2079 21.8958 36.0057 22.2836 35.7074 22.6151C35.4124 22.9432 35.0346 23.1984 34.5739 23.3807C34.1132 23.5597 33.5862 23.6491 32.9929 23.6491ZM39.7108 19.0256V23.5H37.911V15.8636H39.6312V17.1612H39.7207C39.8964 16.7337 40.1764 16.3939 40.5609 16.142C40.9487 15.8902 41.4276 15.7642 41.9977 15.7642C42.5247 15.7642 42.9837 15.8769 43.3748 16.1023C43.7692 16.3277 44.0742 16.6541 44.2896 17.0817C44.5083 17.5092 44.6161 18.0279 44.6127 18.6378V23.5H42.813V18.9162C42.813 18.4058 42.6805 18.0064 42.4153 17.718C42.1535 17.4297 41.7905 17.2855 41.3265 17.2855C41.0117 17.2855 40.7316 17.3551 40.4863 17.4943C40.2444 17.6302 40.0538 17.8274 39.9146 18.0859C39.7787 18.3445 39.7108 18.6577 39.7108 19.0256ZM51.3095 20.2884V15.8636H53.1092V23.5H51.3642V22.1428H51.2846C51.1123 22.5703 50.8289 22.92 50.4345 23.1918C50.0434 23.4635 49.5611 23.5994 48.9877 23.5994C48.4873 23.5994 48.0448 23.4884 47.6603 23.2663C47.2792 23.041 46.9809 22.7145 46.7654 22.2869C46.55 21.8561 46.4423 21.3357 46.4423 20.7259V15.8636H48.242V20.4474C48.242 20.9313 48.3746 21.3158 48.6397 21.6009C48.9049 21.8859 49.2529 22.0284 49.6838 22.0284C49.9489 22.0284 50.2058 21.9638 50.4544 21.8345C50.7029 21.7053 50.9068 21.513 51.0659 21.2578C51.2283 20.9993 51.3095 20.6761 51.3095 20.2884Z" fill="#F9F9F9"/>
<path d="M86 16H72" stroke="#F9F9F9" stroke-width="1.4" stroke-linecap="round" stroke-linejoin="round"/>
<path d="M86 12H68" stroke="#F9F9F9" stroke-width="1.4" stroke-linecap="round" stroke-linejoin="round"/>
<path d="M86 20H68" stroke="#F9F9F9" stroke-width="1.4" stroke-linecap="round" stroke-linejoin="round"/>
<path d="M86 24H72" stroke="#F9F9F9" stroke-width="1.4" stroke-linecap="round" stroke-linejoin="round"/>
</svg>
