<svg width="312" height="41" viewBox="0 0 312 41" fill="none" xmlns="http://www.w3.org/2000/svg">
<rect width="312" height="41" rx="4" fill="#DA2535"/>
<path d="M107.719 19.2536H105.86C105.807 18.9486 105.709 18.6785 105.567 18.4432C105.424 18.2045 105.247 18.0024 105.035 17.8366C104.823 17.6709 104.581 17.5466 104.309 17.4638C104.04 17.3776 103.75 17.3345 103.439 17.3345C102.885 17.3345 102.395 17.4737 101.967 17.7521C101.54 18.0272 101.205 18.4316 100.963 18.9652C100.721 19.4955 100.6 20.1435 100.6 20.9091C100.6 21.688 100.721 22.3442 100.963 22.8778C101.208 23.4081 101.543 23.8092 101.967 24.081C102.395 24.3494 102.884 24.4837 103.434 24.4837C103.739 24.4837 104.024 24.4439 104.289 24.3643C104.558 24.2815 104.798 24.1605 105.01 24.0014C105.225 23.8423 105.406 23.6468 105.552 23.4148C105.701 23.1828 105.804 22.9176 105.86 22.6193L107.719 22.6293C107.65 23.1132 107.499 23.5672 107.267 23.9915C107.038 24.4157 106.738 24.7902 106.367 25.1151C105.996 25.4366 105.562 25.6884 105.065 25.8707C104.567 26.0497 104.016 26.1392 103.409 26.1392C102.514 26.1392 101.715 25.9321 101.013 25.5178C100.31 25.1035 99.7566 24.5052 99.3523 23.723C98.9479 22.9408 98.7457 22.0028 98.7457 20.9091C98.7457 19.812 98.9496 18.8741 99.3572 18.0952C99.7649 17.313 100.32 16.7147 101.023 16.3004C101.725 15.8861 102.521 15.679 103.409 15.679C103.976 15.679 104.503 15.7585 104.99 15.9176C105.477 16.0767 105.911 16.3104 106.293 16.6186C106.674 16.9235 106.987 17.2981 107.232 17.7422C107.481 18.183 107.643 18.6868 107.719 19.2536ZM110.593 26H108.624L112.209 15.8182H114.486L118.075 26H116.107L113.387 17.9062H113.308L110.593 26ZM110.658 22.0078H116.027V23.4893H110.658V22.0078ZM119.416 26V15.8182H123.235C124.017 15.8182 124.673 15.9541 125.203 16.2259C125.737 16.4976 126.14 16.8788 126.411 17.3693C126.686 17.8565 126.824 18.425 126.824 19.0746C126.824 19.7275 126.685 20.2943 126.406 20.7749C126.131 21.2521 125.725 21.6217 125.188 21.8835C124.651 22.142 123.992 22.2713 123.21 22.2713H120.49V20.7401H122.961C123.419 20.7401 123.793 20.6771 124.085 20.5511C124.376 20.4219 124.592 20.2346 124.731 19.9893C124.874 19.7408 124.945 19.4358 124.945 19.0746C124.945 18.7133 124.874 18.4051 124.731 18.1499C124.588 17.8913 124.371 17.6958 124.08 17.5632C123.788 17.4273 123.412 17.3594 122.951 17.3594H121.261V26H119.416ZM124.676 21.3864L127.197 26H125.139L122.663 21.3864H124.676ZM128.522 26V15.8182H132.34C133.122 15.8182 133.778 15.9541 134.309 16.2259C134.842 16.4976 135.245 16.8788 135.517 17.3693C135.792 17.8565 135.93 18.425 135.93 19.0746C135.93 19.7275 135.79 20.2943 135.512 20.7749C135.237 21.2521 134.831 21.6217 134.294 21.8835C133.757 22.142 133.097 22.2713 132.315 22.2713H129.596V20.7401H132.067C132.524 20.7401 132.898 20.6771 133.19 20.5511C133.482 20.4219 133.697 20.2346 133.836 19.9893C133.979 19.7408 134.05 19.4358 134.05 19.0746C134.05 18.7133 133.979 18.4051 133.836 18.1499C133.694 17.8913 133.477 17.6958 133.185 17.5632C132.894 17.4273 132.517 17.3594 132.057 17.3594H130.366V26H128.522ZM133.782 21.3864L136.302 26H134.244L131.768 21.3864H133.782ZM137.627 26V15.8182H144.249V17.3643H139.472V20.1286H143.906V21.6747H139.472V24.4538H144.289V26H137.627ZM152.952 19.0696C152.869 18.8011 152.755 18.5608 152.609 18.3487C152.467 18.1333 152.294 17.9493 152.092 17.7969C151.893 17.6444 151.665 17.5301 151.406 17.4538C151.148 17.3743 150.866 17.3345 150.561 17.3345C150.014 17.3345 149.527 17.4721 149.099 17.7472C148.672 18.0223 148.335 18.4266 148.09 18.9602C147.848 19.4905 147.727 20.1368 147.727 20.8991C147.727 21.6681 147.848 22.3194 148.09 22.853C148.332 23.3866 148.668 23.7926 149.099 24.071C149.53 24.3461 150.031 24.4837 150.601 24.4837C151.118 24.4837 151.565 24.3842 151.943 24.1854C152.324 23.9865 152.617 23.7048 152.823 23.3402C153.028 22.9723 153.131 22.5414 153.131 22.0476L153.549 22.1122H150.785V20.6705H154.916V21.8935C154.916 22.7652 154.73 23.5192 154.359 24.1555C153.988 24.7919 153.478 25.2824 152.828 25.6271C152.178 25.9685 151.433 26.1392 150.591 26.1392C149.653 26.1392 148.829 25.9287 148.12 25.5078C147.414 25.0836 146.862 24.482 146.464 23.7031C146.07 22.9209 145.873 21.9929 145.873 20.919C145.873 20.0971 145.989 19.3629 146.221 18.7166C146.456 18.0703 146.784 17.5218 147.205 17.071C147.626 16.617 148.12 16.2723 148.687 16.0369C149.253 15.7983 149.87 15.679 150.536 15.679C151.099 15.679 151.625 15.7618 152.112 15.9276C152.599 16.09 153.032 16.322 153.41 16.6236C153.791 16.9252 154.104 17.2831 154.349 17.6974C154.595 18.1117 154.755 18.5691 154.831 19.0696H152.952ZM157.693 26H155.724L159.308 15.8182H161.585L165.175 26H163.206L160.487 17.9062H160.407L157.693 26ZM157.757 22.0078H163.127V23.4893H157.757V22.0078ZM166.516 26V15.8182H170.334C171.116 15.8182 171.773 15.9541 172.303 16.2259C172.837 16.4976 173.239 16.8788 173.511 17.3693C173.786 17.8565 173.924 18.425 173.924 19.0746C173.924 19.7275 173.784 20.2943 173.506 20.7749C173.231 21.2521 172.825 21.6217 172.288 21.8835C171.751 22.142 171.092 22.2713 170.309 22.2713H167.59V20.7401H170.061C170.518 20.7401 170.893 20.6771 171.184 20.5511C171.476 20.4219 171.691 20.2346 171.831 19.9893C171.973 19.7408 172.044 19.4358 172.044 19.0746C172.044 18.7133 171.973 18.4051 171.831 18.1499C171.688 17.8913 171.471 17.6958 171.179 17.5632C170.888 17.4273 170.511 17.3594 170.051 17.3594H168.36V26H166.516ZM171.776 21.3864L174.297 26H172.238L169.762 21.3864H171.776ZM179.094 15.8182H181.351L184.374 23.196H184.493L187.516 15.8182H189.773V26H188.003V19.005H187.909L185.095 25.9702H183.772L180.958 18.9901H180.864V26H179.094V15.8182ZM193.089 26H191.12L194.705 15.8182H196.982L200.571 26H198.603L195.883 17.9062H195.804L193.089 26ZM193.154 22.0078H198.523V23.4893H193.154V22.0078ZM203.757 15.8182V26H201.912V15.8182H203.757ZM211.288 18.6172C211.241 18.183 211.046 17.8449 210.701 17.603C210.36 17.361 209.915 17.2401 209.369 17.2401C208.984 17.2401 208.654 17.2981 208.379 17.4141C208.104 17.5301 207.894 17.6875 207.748 17.8864C207.602 18.0852 207.527 18.3123 207.524 18.5675C207.524 18.7796 207.572 18.9635 207.668 19.1193C207.768 19.2751 207.902 19.4077 208.071 19.517C208.24 19.6231 208.427 19.7126 208.633 19.7855C208.838 19.8584 209.045 19.9197 209.254 19.9695L210.209 20.2081C210.593 20.2976 210.963 20.4186 211.317 20.571C211.675 20.7235 211.995 20.9157 212.277 21.1477C212.562 21.3797 212.787 21.6598 212.953 21.9879C213.119 22.3161 213.202 22.7005 213.202 23.1413C213.202 23.7379 213.049 24.2633 212.744 24.7173C212.439 25.1681 211.999 25.5211 211.422 25.7763C210.848 26.0282 210.154 26.1541 209.339 26.1541C208.547 26.1541 207.859 26.0315 207.276 25.7862C206.696 25.541 206.241 25.183 205.913 24.7124C205.589 24.2417 205.413 23.6683 205.386 22.9922H207.201C207.228 23.3468 207.337 23.6418 207.529 23.8771C207.721 24.1125 207.972 24.2881 208.28 24.4041C208.591 24.5201 208.939 24.5781 209.324 24.5781C209.725 24.5781 210.076 24.5185 210.378 24.3991C210.683 24.2765 210.921 24.1075 211.094 23.892C211.266 23.6733 211.354 23.4181 211.357 23.1264C211.354 22.8613 211.276 22.6425 211.124 22.4702C210.971 22.2945 210.757 22.1487 210.482 22.0327C210.21 21.9134 209.892 21.8073 209.528 21.7145L208.369 21.4162C207.531 21.2008 206.868 20.8743 206.381 20.4368C205.897 19.996 205.655 19.411 205.655 18.6818C205.655 18.0819 205.817 17.5566 206.142 17.1058C206.47 16.6551 206.916 16.3054 207.479 16.0568C208.043 15.8049 208.681 15.679 209.393 15.679C210.116 15.679 210.749 15.8049 211.293 16.0568C211.839 16.3054 212.269 16.6518 212.58 17.0959C212.892 17.5367 213.053 18.0438 213.062 18.6172H211.288Z" fill="#F9F9F9"/>
</svg>
