<svg width="312" height="41" viewBox="0 0 312 41" fill="none" xmlns="http://www.w3.org/2000/svg">
<rect width="312" height="41" rx="4" fill="#DA2535"/>
<path d="M111.004 26V15.8182H112.849V24.4538H117.333V26H111.004ZM118.934 26V15.8182H125.556V17.3643H120.778V20.1286H125.213V21.6747H120.778V24.4538H125.596V26H118.934ZM127.438 26V15.8182H131.256C132.038 15.8182 132.694 15.9541 133.225 16.2259C133.758 16.4976 134.161 16.8788 134.433 17.3693C134.708 17.8565 134.846 18.425 134.846 19.0746C134.846 19.7275 134.706 20.2943 134.428 20.7749C134.153 21.2521 133.747 21.6217 133.21 21.8835C132.673 22.142 132.013 22.2713 131.231 22.2713H128.512V20.7401H130.983C131.44 20.7401 131.815 20.6771 132.106 20.5511C132.398 20.4219 132.613 20.2346 132.752 19.9893C132.895 19.7408 132.966 19.4358 132.966 19.0746C132.966 18.7133 132.895 18.4051 132.752 18.1499C132.61 17.8913 132.393 17.6958 132.101 17.5632C131.81 17.4273 131.433 17.3594 130.973 17.3594H129.282V26H127.438ZM132.698 21.3864L135.218 26H133.16L130.684 21.3864H132.698ZM140.016 15.8182H142.273L145.296 23.196H145.415L148.438 15.8182H150.695V26H148.925V19.005H148.831L146.017 25.9702H144.694L141.88 18.9901H141.786V26H140.016V15.8182ZM154.011 26H152.042L155.627 15.8182H157.904L161.493 26H159.525L156.805 17.9062H156.725L154.011 26ZM154.076 22.0078H159.445V23.4893H154.076V22.0078ZM161.156 17.3643V15.8182H169.28V17.3643H166.133V26H164.303V17.3643H161.156ZM170.846 26V15.8182H177.468V17.3643H172.691V20.1286H177.125V21.6747H172.691V24.4538H177.508V26H170.846ZM173.471 14.8139L174.585 12.5419H176.345L174.818 14.8139H173.471ZM179.35 26V15.8182H183.168C183.95 15.8182 184.607 15.9541 185.137 16.2259C185.671 16.4976 186.073 16.8788 186.345 17.3693C186.62 17.8565 186.758 18.425 186.758 19.0746C186.758 19.7275 186.618 20.2943 186.34 20.7749C186.065 21.2521 185.659 21.6217 185.122 21.8835C184.585 22.142 183.925 22.2713 183.143 22.2713H180.424V20.7401H182.895C183.352 20.7401 183.727 20.6771 184.018 20.5511C184.31 20.4219 184.525 20.2346 184.665 19.9893C184.807 19.7408 184.878 19.4358 184.878 19.0746C184.878 18.7133 184.807 18.4051 184.665 18.1499C184.522 17.8913 184.305 17.6958 184.013 17.5632C183.722 17.4273 183.345 17.3594 182.885 17.3594H181.194V26H179.35ZM184.61 21.3864L187.131 26H185.072L182.596 21.3864H184.61ZM190.3 15.8182V26H188.455V15.8182H190.3ZM193.605 26H191.636L195.221 15.8182H197.498L201.087 26H199.118L196.399 17.9062H196.319L193.605 26ZM193.669 22.0078H199.039V23.4893H193.669V22.0078Z" fill="#F9F9F9"/>
</svg>
